<?xml version="1.0" encoding="UTF-8" standalone="no"?>
<svg
   xmlns:dc="http://purl.org/dc/elements/1.1/"
   xmlns:cc="http://creativecommons.org/ns#"
   xmlns:rdf="http://www.w3.org/1999/02/22-rdf-syntax-ns#"
   xmlns:svg="http://www.w3.org/2000/svg"
   xmlns="http://www.w3.org/2000/svg"
   xmlns:sodipodi="http://sodipodi.sourceforge.net/DTD/sodipodi-0.dtd"
   xmlns:inkscape="http://www.inkscape.org/namespaces/inkscape"
   sodipodi:docname="logo.svg"
   inkscape:version="1.0 (4035a4fb49, 2020-05-01)"
   id="svg8"
   version="1.1"
   viewBox="0 0 210 297"
   height="297mm"
   width="210mm">
  <defs
     id="defs2">
    <rect
       id="rect126"
       height="36.285714"
       width="89.202381"
       y="83.154762"
       x="173.86905" />
    <rect
       id="rect16"
       height="30.238095"
       width="18.142857"
       y="89.958333"
       x="108.85714" />
  </defs>
  <sodipodi:namedview
     inkscape:window-maximized="0"
     inkscape:window-y="454"
     inkscape:window-x="449"
     inkscape:window-height="1228"
     inkscape:window-width="2249"
     showgrid="false"
     inkscape:document-rotation="0"
     inkscape:current-layer="layer1"
     inkscape:document-units="mm"
     inkscape:cy="547.14286"
     inkscape:cx="-392.85714"
     inkscape:zoom="0.35"
     inkscape:pageshadow="2"
     inkscape:pageopacity="0.0"
     borderopacity="1.0"
     bordercolor="#666666"
     pagecolor="#ffffff"
     id="base" />
  <metadata
     id="metadata5">
    <rdf:RDF>
      <cc:Work
         rdf:about="">
        <dc:format>image/svg+xml</dc:format>
        <dc:type
           rdf:resource="http://purl.org/dc/dcmitype/StillImage" />
        <dc:title></dc:title>
      </cc:Work>
    </rdf:RDF>
  </metadata>
  <g
     id="layer1"
     inkscape:groupmode="layer"
     inkscape:label="レイヤー 1">
    <text
       transform="matrix(2.3378562,0,0,1.8999422,-160.94445,2.5008806)"
       id="text12"
       y="108.1012"
       x="83.910713"
       style="font-style:normal;font-weight:normal;font-size:88.1944px;line-height:12.85;font-family:sans-serif;white-space:pre;inline-size:173.071;fill:#000000;fill-opacity:1;stroke:none;stroke-width:0.264583"
       xml:space="preserve"><tspan
         x="83.910713"
         y="108.1012"><tspan
           style="font-style:normal;font-variant:normal;font-weight:normal;font-stretch:normal;font-size:88.1944px;font-family:Impact;-inkscape-font-specification:Impact;stroke-width:0.264583">M</tspan></tspan></text>
    <text
       style="font-size:10.5833px;line-height:1.25;font-family:Impact;-inkscape-font-specification:Impact;white-space:pre;shape-inside:url(#rect16);"
       id="text14"
       xml:space="preserve" />
    <text
       style="font-size:10.5833px;line-height:1.25;font-family:Impact;-inkscape-font-specification:Impact;white-space:pre;shape-inside:url(#rect126);"
       id="text124"
       xml:space="preserve" />
    <path
       d="m 159.0744,67.135808 c -4.99039,5.91076 -10.08463,11.719893 -15.3565,17.381125 -7.23895,7.856841 -14.41322,15.773957 -21.77075,23.520577 -6.22735,6.2647 -12.53197,12.44992 -18.75199,18.72161 -6.148172,6.25485 -12.51297,12.31961 -19.339897,17.83031 -7.056247,5.79147 -14.82048,10.60086 -22.504419,15.49259 -3.545551,2.24412 -7.200484,4.29748 -10.800376,6.45157 -1.019098,0.6098 -4.098636,2.40161 -3.070701,1.80682 17.527018,-10.14159 20.857874,-11.92658 13.034944,-7.66159 -5.042302,2.85564 -10.263516,5.37488 -15.572677,7.69039 -6.66543,2.79762 -13.713346,4.66856 -20.916722,5.38489 -2.436286,0.24227 -4.887311,0.30156 -7.330967,0.45235 -3.212567,-0.0879 -6.425134,-0.1759 -9.6377004,-0.26385 0,0 -15.9984441,11.48274 -15.9984441,11.48274 v 0 c 3.0596231,0.27526 6.1192462,0.55052 9.17886944,0.82578 2.36050386,-0.0165 4.72341086,0.0581 7.08151156,-0.0496 7.0480495,-0.3221 13.9718455,-1.83609 20.5545235,-4.34569 5.366991,-2.24541 10.682245,-4.66566 15.730209,-7.56653 12.793186,-6.78927 25.178102,-14.3492 37.532754,-21.90087 7.722741,-4.91942 15.428717,-9.90195 22.484482,-15.7634 6.72687,-5.64917 13.06819,-11.73666 19.21796,-18.00723 6.21645,-6.21721 12.51513,-12.35211 18.58374,-18.715876 7.27586,-7.795582 14.39047,-15.741242 21.70224,-23.504125 5.54282,-5.948468 10.88881,-12.076109 16.53288,-17.92973 0,0 -20.58297,8.667779 -20.58297,8.667779 z"
       id="path989"
       style="fill:#ffffff;stroke:#ffffff;stroke-width:0.264583" />
    <path
       d="M 64.454081,46.513006 C 61.809476,53.143419 57.729712,59.111422 53.906202,65.104673 48.626111,73.321576 42.58765,81.046557 36.03208,88.283697 c -2.982725,3.292829 -8.015314,8.375742 -11.16887,11.597214 -6.27551,6.121229 -3.244158,3.216339 -9.081569,8.727669 0,0 19.330591,-7.97337 19.330591,-7.97337 v 0 c 5.386268,-5.384597 2.567331,-2.541234 8.448537,-8.53828 10.590385,-11.139921 21.120986,-22.440836 29.495427,-35.398326 4.203282,-6.360686 8.70684,-12.679516 11.625744,-19.760255 0,0 -20.227859,9.574657 -20.227859,9.574657 z"
       id="path991"
       style="fill:#ffffff;stroke:#ffffff;stroke-width:0.264583" />
    <path
       d="m 42.9305,69.351664 c -0.201208,0.390843 -0.374584,0.79732 -0.603626,1.17253 -0.323768,0.530379 -0.714824,1.017027 -1.05171,1.539172 -1.49592,2.318546 -1.482919,2.502289 -3.057819,5.039981 -1.699826,2.738991 -2.733392,4.229883 -4.548484,6.941421 -5.178107,7.656634 -11.233609,14.66534 -17.634647,21.315422 0,0 19.909468,-8.34065 19.909468,-8.34065 v 0 c 6.078726,-6.890896 12.024919,-13.919808 17.237387,-21.500211 3.423082,-5.044445 6.738218,-10.165762 10.329418,-15.093143 0,0 -20.579987,8.925478 -20.579987,8.925478 z"
       id="path993"
       style="fill:#ffffff;stroke:#ffffff;stroke-width:0.264583" />
    <path
       d="M 82.582569,61.632483 C 74.382171,70.250044 65.642881,78.337811 56.928046,86.430217 47.879597,94.716866 39.10503,103.30705 29.930989,111.45714 c -5.090005,4.52188 -6.259287,5.37922 -11.405676,9.55327 -6.021332,4.83787 -3.132548,2.57011 -8.6519646,6.82158 0,0 19.6480186,-7.87415 19.6480186,-7.87415 v 0 c 5.053226,-4.12589 2.38574,-1.92774 7.994877,-6.60363 13.017598,-10.96535 25.133861,-22.916223 37.68263,-34.405894 9.358085,-8.577082 18.661702,-17.218898 28.067096,-25.741145 0,0 -20.683401,8.425312 -20.683401,8.425312 z"
       id="path995"
       style="fill:#ffffff;stroke:#ffffff;stroke-width:0.264583" />
    <path
       d="m 89.077328,56.108872 c -9.270479,3.219527 -19.08257,10.212628 -26.372306,14.619959 -1.305767,0.789459 -2.504901,1.747406 -3.692999,2.704846 -3.176736,2.560008 -5.267079,4.728141 -8.221218,7.592087 -8.384532,8.327085 -16.442666,16.97071 -24.679498,25.441616 -6.388499,6.57465 -13.373909,12.5444 -20.907694,17.76403 0,0 20.143583,-7.9703 20.143583,-7.9703 v 0 c 7.136205,-5.39862 13.880622,-11.30025 20.033049,-17.807153 8.206417,-8.444417 16.137427,-17.158829 24.632134,-25.319563 3.495564,-3.18298 4.985486,-4.71496 8.71809,-7.469799 1.286573,-0.949555 5.391705,-3.429288 3.980579,-2.677192 -5.145275,2.742309 -10.137256,5.763041 -15.199124,8.65641 -0.765027,0.43729 1.523217,-0.888328 2.308495,-1.288113 0.462177,-0.235294 0.952841,-0.409853 1.429263,-0.614778 0,0 17.827646,-13.63205 17.827646,-13.63205 z"
       id="path997"
       style="fill:#ffffff;stroke:#ffffff;stroke-width:0.264583" />
    <path
       d="m 90.473113,51.267373 c -3.59352,4.753416 -7.33608,9.386665 -10.965648,14.110842 -0.88484,1.084681 -1.788509,2.15427 -2.654522,3.254042 -3.185319,4.045119 -1.930334,2.71499 -5.197581,6.759175 -2.452724,3.035972 -5.088392,5.922113 -7.659171,8.857076 -4.018828,4.461853 -8.213349,8.745352 -12.776592,12.650956 -3.861035,3.492436 -7.917436,6.764216 -11.85128,10.177106 -4.414006,4.27054 -9.090548,8.27373 -13.765677,12.25648 -7.485242,6.67743 -15.188826,13.10184 -22.8617889,19.56077 0,0 19.3826079,-7.84918 19.3826079,-7.84918 v 0 c 7.694683,-6.65258 15.477807,-13.20076 23.281671,-19.72479 4.839864,-4.08936 9.677604,-8.18243 14.315315,-12.502382 3.896874,-3.364968 7.843589,-6.673479 11.667019,-10.122402 4.42562,-4.009377 8.57099,-8.296812 12.455237,-12.835676 5.26629,-6.165905 10.294678,-12.513021 15.297938,-18.89293 3.911179,-4.897702 7.887219,-9.743064 11.896379,-14.560843 0,0 -20.563907,8.861756 -20.563907,8.861756 z"
       id="path999"
       style="fill:#ffffff;stroke:#ffffff;stroke-width:0.264583" />
    <path
       d="m 62.502875,69.410227 c -0.343125,0.381426 -0.712881,0.740476 -1.029372,1.144273 -0.469133,0.59854 -0.871477,1.246767 -1.323843,1.858073 -2.792669,3.773879 -5.548418,7.571862 -8.321614,11.360772 -6.42211,8.945165 -13.952289,16.989165 -21.901409,24.578235 -1.460807,1.31792 -2.882315,2.68076 -4.382419,3.95378 -2.312651,1.96255 -6.320103,5.01722 -8.849084,6.7447 -1.434696,0.98001 -5.908851,3.65478 -4.394208,2.80353 20.700516,-11.63391 16.966279,-9.66489 9.945944,-6.16421 -1.081385,0.48851 -2.16277,0.97701 -3.244154,1.46551 0,0 -16.8559124,13.37155 -16.8559124,13.37155 v 0 c 1.1499058,-0.51637 2.2998114,-1.03274 3.4497172,-1.54911 15.7556882,-7.46835 30.9368012,-16.42639 43.5396012,-28.54279 8.007551,-7.813468 15.599709,-16.038554 22.219004,-25.080586 3.812702,-5.005623 7.544631,-10.083678 11.71166,-14.80548 0,0 -20.563911,8.861753 -20.563911,8.861753 z"
       id="path1001"
       style="fill:#ffffff;stroke:#ffffff;stroke-width:0.264583" />
    <path
       d="m 186.50314,181.25073 c -11.34754,9.07535 -23.23978,17.44592 -35.10413,25.82576 -18.66472,13.48305 -38.01391,25.96734 -57.07386,38.87379 0,0 18.61927,-7.31552 18.61927,-7.31552 v 0 c 18.68063,-13.043 37.77576,-25.48105 56.38633,-38.62686 12.66504,-8.88439 25.34713,-17.75083 37.75325,-26.99548 0,0 -20.58086,8.23831 -20.58086,8.23831 z"
       id="path1003"
       style="fill:#ffffff;stroke:#ffffff;stroke-width:0.264583" />
    <path
       d="m 186.40832,173.4916 c -5.03225,9.30989 -11.85329,17.43754 -18.72413,25.41972 -8.83258,9.91524 -18.62392,18.99831 -29.28886,26.91901 -2.15403,1.59977 -4.37521,3.10711 -6.56281,4.66066 -6.37622,4.33546 -12.94571,8.38277 -19.55552,12.35019 -1.70823,1.02534 -6.87604,4.0286 -5.15206,3.02996 4.6697,-2.70496 9.3262,-5.43267 13.98929,-8.14901 0,0 -16.50101,13.34944 -16.50101,13.34944 v 0 c 15.51461,-8.97329 31.17313,-17.76114 45.9262,-27.97311 2.19754,-1.58912 4.43037,-3.13055 6.59262,-4.76735 10.61243,-8.03347 20.27436,-17.27053 29.07053,-27.24709 3.81979,-4.39099 6.67717,-7.56986 10.27112,-12.10076 3.68184,-4.64169 6.95656,-9.58189 10.27833,-14.48096 0,0 -20.3437,8.9893 -20.3437,8.9893 z"
       id="path1005"
       style="fill:#ffffff;stroke:#ffffff;stroke-width:0.264583" />
    <path
       d="m 184.30922,186.2311 c -3.02104,5.62656 -7.4831,10.35494 -11.90269,14.89865 -5.79763,5.96045 -5.91038,5.8705 -12.1714,11.50511 -8.80087,7.09251 -4.40739,3.72814 -13.16021,10.11948 0,0 18.76881,-7.45715 18.76881,-7.45715 v 0 c 8.45349,-6.42915 4.15738,-3.03662 12.86455,-10.20764 9.38268,-8.55591 19.01499,-17.256 25.96883,-27.98607 0,0 -20.36789,9.12762 -20.36789,9.12762 z"
       id="path1007"
       style="fill:#ffffff;stroke:#ffffff;stroke-width:0.264583" />
    <path
       d="m 169.84547,203.03899 c -3.97991,3.06544 -8.09446,5.9507 -11.97947,9.14028 -0.52604,0.43188 -7.01553,5.986 -7.57893,6.46781 -4.39456,3.86196 -8.72437,7.81901 -13.4746,11.24916 -2.32039,1.67555 -3.61545,2.44451 -5.99401,3.94608 -3.31592,1.95365 -1.73879,0.99716 -4.73719,2.85986 0,0 20.42164,-7.91847 20.42164,-7.91847 v 0 c 2.82491,-1.76731 1.33936,-0.83478 4.45571,-2.79909 6.73682,-4.54916 12.91053,-9.79154 18.9107,-15.26938 6.59808,-5.63008 13.40212,-10.99012 20.61045,-15.82669 0,0 -20.6343,8.15044 -20.6343,8.15044 z"
       id="path1009"
       style="fill:#ffffff;stroke:#ffffff;stroke-width:0.264583" />
    <path
       d="m 178.80782,195.24582 c -13.09598,6.21901 -25.00131,14.35239 -36.75537,22.69786 -5.1871,3.69947 -10.44202,7.30657 -15.61089,11.02947 0,0 20.43033,-8.07634 20.43033,-8.07634 v 0 c 4.99367,-3.57793 9.94292,-7.21736 14.96377,-10.75746 3.60317,-2.54195 7.20536,-5.07703 10.92814,-7.44293 1.05551,-0.6708 4.28228,-2.58457 3.19281,-1.97045 -6.80722,3.83714 -22.63569,13.04254 -14.70161,8.43018 0,0 17.55282,-13.91033 17.55282,-13.91033 z"
       id="path1011"
       style="fill:#ffffff;stroke:#ffffff;stroke-width:0.264583" />
    <path
       d="m 170.75975,163.37685 c -4.54159,8.45913 -10.22353,16.21827 -15.97852,23.87566 -7.21281,9.085 -14.54091,18.11944 -22.46697,26.59944 -5.20409,5.56779 -6.31969,6.48576 -11.71318,11.61997 -5.28583,5.04662 -10.93795,9.68578 -16.8072,14.03139 0,0 19.956,-7.96881 19.956,-7.96881 v 0 c 5.38317,-4.34914 10.60571,-8.89758 15.52891,-13.76663 1.82743,-1.8097 3.68699,-3.58752 5.48227,-5.42911 10.19279,-10.45575 19.48051,-21.75886 28.65621,-33.10178 6.24129,-8.10411 12.2936,-16.3555 17.77587,-24.99809 0,0 -20.43339,9.13796 -20.43339,9.13796 z"
       id="path1013"
       style="fill:#ffffff;stroke:#ffffff;stroke-width:0.264583" />
    <path
       d="m 171.23304,179.28923 c -9.06245,10.90909 -19.48132,20.54357 -29.95539,30.06129 -10.14472,8.93298 -20.274,17.91655 -31.05371,26.08321 0,0 19.5246,-7.81538 19.5246,-7.81538 v 0 c 10.07872,-8.23321 19.69469,-17.01624 29.47478,-25.5977 11.203,-10.11881 22.34233,-20.36505 32.46588,-31.58243 0,0 -20.45616,8.85101 -20.45616,8.85101 z"
       id="path1015"
       style="fill:#ffffff;stroke:#ffffff;stroke-width:0.264583" />
    <path
       d="m 165.08456,184.515 c -0.33426,2.07074 -0.47716,3.52188 -1.27525,5.56433 -3.55298,9.09271 -10.78638,16.07902 -17.32518,23.04827 -5.24566,5.24915 -10.47808,10.56465 -16.29219,15.19911 -1.20199,0.95812 -2.48314,1.81247 -3.72471,2.7187 0,0 19.7665,-7.89593 19.7665,-7.89593 v 0 c 6.57285,-5.42456 12.60104,-11.43911 18.45192,-17.63229 7.05365,-7.56083 14.55226,-14.97691 18.62855,-24.67261 0.44031,-1.04732 1.44316,-4.68621 1.82059,-6.01816 0,0 -20.05023,9.68858 -20.05023,9.68858 z"
       id="path1017"
       style="fill:#ffffff;stroke:#ffffff;stroke-width:0.264583" />
    <path
       d="m 171.28029,147.33779 c -4.78934,7.2579 -8.65345,15.08944 -12.72649,22.76212 -7.36905,14.39056 -14.68345,28.88902 -23.30332,42.58862 -1.79832,2.85808 -3.73591,5.62613 -5.60387,8.43919 -8.13026,11.628 -18.08428,21.76467 -28.77066,31.02968 0,0 19.27703,-7.86961 19.27703,-7.86961 v 0 c 10.0357,-9.45859 19.47786,-19.59203 27.32255,-30.97499 1.84355,-2.8355 3.75163,-5.63007 5.53066,-8.50649 8.69331,-14.05575 16.05345,-28.89212 24.38984,-43.1543 4.40468,-7.93118 8.60471,-16.11237 14.42678,-23.12406 0,0 -20.54252,8.80984 -20.54252,8.80984 z"
       id="path1019"
       style="fill:#ffffff;stroke:#ffffff;stroke-width:0.264583" />
    <path
       d="m 175.9312,132.29701 c -1.02293,1.59779 -3.69902,5.78528 -4.15421,6.42822 -5.29826,7.48369 -13.39227,17.57313 -18.64286,23.92643 -13.42023,16.2387 -27.80929,32.5417 -41.59764,48.39347 -22.892764,25.96427 -46.73695,51.05261 -70.67972,76.0412 0,0 12.213248,-5.10625 12.213248,-5.10625 v 0 c 22.898074,-25.07501 45.810969,-50.13648 68.684132,-75.23423 47.38574,-51.63685 4.80028,-5.15184 45.94139,-50.25494 5.21978,-5.72246 10.54149,-11.35275 15.68767,-17.14148 4.56931,-5.13983 8.86374,-10.55556 13.04096,-16.01879 0,0 -20.49297,8.96637 -20.49297,8.96637 z"
       id="path1021"
       style="fill:#ffffff;stroke:#ffffff;stroke-width:0.264583" />
    <circle
       r="0.19981238"
       cy="243.41666"
       cx="150.43452"
       style="fill:#ffffff;stroke:#ffffff;stroke-width:0.264583"
       id="path1023" />
  </g>
</svg>
